<svg xmlns="http://www.w3.org/2000/svg" xmlns:xlink="http://www.w3.org/1999/xlink" width="500" zoomAndPan="magnify" viewBox="0 0 375 374.999991" height="500" preserveAspectRatio="xMidYMid meet" version="1.0"><defs><g/></defs><g fill="#6b4f3a" fill-opacity="1"><g transform="translate(67.06021, 198.60925)"><g><path d="M 9.890625 -26.84375 L 16.46875 -7.03125 L 16.71875 -7.03125 L 23.609375 -28.328125 L 20.609375 -28.515625 L 20.609375 -32.703125 L 31.90625 -32.703125 L 31.90625 -28.71875 L 30.296875 -28.5625 C 29.867188 -28.53125 29.554688 -28.40625 29.359375 -28.1875 C 29.160156 -27.976562 28.960938 -27.613281 28.765625 -27.09375 L 19.46875 0 L 13.078125 0 L 3.046875 -28.375 L 0.25 -28.515625 L 0.25 -32.703125 L 12.9375 -32.703125 L 12.9375 -28.71875 L 11.3125 -28.5625 C 10.289062 -28.5 9.78125 -28.109375 9.78125 -27.390625 C 9.78125 -27.222656 9.816406 -27.039062 9.890625 -26.84375 Z M 9.890625 -26.84375 "/></g></g></g><g fill="#6b4f3a" fill-opacity="1"><g transform="translate(102.361454, 198.60925)"><g><path d="M 13.96875 -25.46875 C 16.425781 -25.46875 18.375 -24.867188 19.8125 -23.671875 C 21.257812 -22.472656 21.984375 -20.796875 21.984375 -18.640625 C 21.984375 -17.191406 21.671875 -15.914062 21.046875 -14.8125 C 20.421875 -13.71875 19.648438 -12.859375 18.734375 -12.234375 C 17.816406 -11.617188 16.703125 -11.113281 15.390625 -10.71875 C 13.191406 -10.0625 10.71875 -9.734375 7.96875 -9.734375 C 8.0625 -7.992188 8.597656 -6.59375 9.578125 -5.53125 C 10.566406 -4.46875 12.078125 -3.9375 14.109375 -3.9375 C 16.140625 -3.9375 18.171875 -4.65625 20.203125 -6.09375 L 22.078125 -2.109375 C 21.421875 -1.523438 20.3125 -0.921875 18.75 -0.296875 C 17.195312 0.328125 15.421875 0.640625 13.421875 0.640625 C 9.421875 0.640625 6.484375 -0.460938 4.609375 -2.671875 C 2.742188 -4.890625 1.8125 -7.929688 1.8125 -11.796875 C 1.8125 -15.671875 2.878906 -18.914062 5.015625 -21.53125 C 7.148438 -24.15625 10.132812 -25.46875 13.96875 -25.46875 Z M 11.71875 -14.234375 C 12.914062 -14.453125 14.023438 -14.925781 15.046875 -15.65625 C 16.066406 -16.394531 16.578125 -17.273438 16.578125 -18.296875 C 16.578125 -20.296875 15.59375 -21.296875 13.625 -21.296875 C 11.78125 -21.296875 10.367188 -20.566406 9.390625 -19.109375 C 8.410156 -17.648438 7.867188 -15.898438 7.765625 -13.859375 C 9.210938 -13.898438 10.53125 -14.023438 11.71875 -14.234375 Z M 11.71875 -14.234375 "/></g></g></g><g fill="#6b4f3a" fill-opacity="1"><g transform="translate(129.304564, 198.60925)"><g><path d="M 4.671875 -5.5 L 4.671875 -19.125 C 4.671875 -19.65625 4.578125 -20.023438 4.390625 -20.234375 C 4.210938 -20.441406 3.894531 -20.566406 3.4375 -20.609375 L 1.375 -20.75 L 1.375 -24.734375 L 9.6875 -24.734375 L 9.6875 -21.046875 C 10.28125 -22.328125 11.195312 -23.382812 12.4375 -24.21875 C 13.6875 -25.050781 15.117188 -25.46875 16.734375 -25.46875 C 18.359375 -25.46875 19.910156 -25.109375 21.390625 -24.390625 L 21.390625 -17.0625 L 16.8125 -16.71875 L 16.8125 -18.984375 C 16.8125 -19.640625 16.648438 -20.046875 16.328125 -20.203125 C 15.960938 -20.367188 15.519531 -20.453125 15 -20.453125 C 13.6875 -20.453125 12.609375 -19.984375 11.765625 -19.046875 C 10.929688 -18.117188 10.515625 -16.929688 10.515625 -15.484375 L 10.515625 -4.078125 L 14.796875 -3.890625 L 14.796875 0 L 1.625 0 L 1.625 -3.734375 L 3.25 -3.890625 C 3.738281 -3.953125 4.097656 -4.085938 4.328125 -4.296875 C 4.554688 -4.515625 4.671875 -4.914062 4.671875 -5.5 Z M 4.671875 -5.5 "/></g></g></g><g fill="#6b4f3a" fill-opacity="1"><g transform="translate(155.166025, 198.60925)"><g><path d="M 12.9375 -3.59375 C 16.507812 -3.59375 18.296875 -6.476562 18.296875 -12.25 C 18.296875 -15.164062 17.890625 -17.375 17.078125 -18.875 C 16.273438 -20.382812 14.929688 -21.140625 13.046875 -21.140625 C 11.171875 -21.140625 9.789062 -20.414062 8.90625 -18.96875 C 8.019531 -17.53125 7.578125 -15.566406 7.578125 -13.078125 C 7.578125 -8.453125 8.425781 -5.550781 10.125 -4.375 C 10.882812 -3.851562 11.820312 -3.59375 12.9375 -3.59375 Z M 1.625 -12.390625 C 1.625 -14.816406 1.984375 -16.921875 2.703125 -18.703125 C 3.421875 -20.492188 4.390625 -21.863281 5.609375 -22.8125 C 7.929688 -24.582031 10.503906 -25.46875 13.328125 -25.46875 C 15.296875 -25.46875 16.957031 -25.144531 18.3125 -24.5 C 19.675781 -23.863281 20.742188 -23.128906 21.515625 -22.296875 C 22.285156 -21.460938 22.941406 -20.25 23.484375 -18.65625 C 24.023438 -17.070312 24.296875 -15.195312 24.296875 -13.03125 C 24.296875 -8.507812 23.195312 -5.082031 21 -2.75 C 18.800781 -0.425781 15.988281 0.734375 12.5625 0.734375 C 9.132812 0.734375 6.453125 -0.367188 4.515625 -2.578125 C 2.585938 -4.796875 1.625 -8.066406 1.625 -12.390625 Z M 1.625 -12.390625 "/></g></g></g><g fill="#3a5340" fill-opacity="1"><g transform="translate(184.281647, 198.60925)"><g><path d="M 21.4375 -27.484375 C 21.070312 -28.109375 19.726562 -28.421875 17.40625 -28.421875 C 14.351562 -28.421875 12.039062 -27.382812 10.46875 -25.3125 C 8.894531 -23.25 8.109375 -20.269531 8.109375 -16.375 C 8.109375 -8.28125 11.140625 -4.234375 17.203125 -4.234375 C 17.304688 -4.234375 17.742188 -4.234375 18.515625 -4.234375 C 19.285156 -4.234375 20.015625 -4.335938 20.703125 -4.546875 C 21.390625 -4.765625 21.796875 -4.988281 21.921875 -5.21875 C 22.054688 -5.445312 22.125 -5.804688 22.125 -6.296875 L 22.125 -10.234375 L 27.140625 -9.890625 L 27.140625 -1.375 C 24.585938 -0.03125 21.34375 0.640625 17.40625 0.640625 C 12.394531 0.640625 8.566406 -0.765625 5.921875 -3.578125 C 3.285156 -6.398438 1.96875 -10.597656 1.96875 -16.171875 C 1.96875 -19.253906 2.410156 -21.941406 3.296875 -24.234375 C 4.179688 -26.535156 5.378906 -28.320312 6.890625 -29.59375 C 9.835938 -32.0625 13.34375 -33.296875 17.40625 -33.296875 C 20.6875 -33.296875 23.769531 -32.617188 26.65625 -31.265625 L 26.65625 -22.921875 L 21.640625 -22.5625 L 21.640625 -26.40625 C 21.640625 -26.894531 21.570312 -27.253906 21.4375 -27.484375 Z M 21.4375 -27.484375 "/></g></g></g><g fill="#3a5340" fill-opacity="1"><g transform="translate(217.026288, 198.60925)"><g><path d="M 23.703125 -23.75 L 23.703125 -5.453125 C 23.703125 -4.929688 23.789062 -4.570312 23.96875 -4.375 C 24.144531 -4.175781 24.46875 -4.0625 24.9375 -4.03125 L 26.5 -3.9375 L 26.5 0 L 18.6875 0 L 18.6875 -2.859375 L 18.53125 -2.90625 C 16.894531 -0.539062 14.648438 0.640625 11.796875 0.640625 C 8.453125 0.640625 5.976562 -0.421875 4.375 -2.546875 C 2.769531 -4.679688 1.96875 -7.601562 1.96875 -11.3125 C 1.96875 -15.769531 3.046875 -19.242188 5.203125 -21.734375 C 7.367188 -24.222656 10.617188 -25.46875 14.953125 -25.46875 C 17.734375 -25.46875 20.648438 -24.894531 23.703125 -23.75 Z M 18 -7.8125 L 18 -20.546875 C 17.082031 -20.972656 15.816406 -21.1875 14.203125 -21.1875 C 12.015625 -21.1875 10.425781 -20.300781 9.4375 -18.53125 C 8.457031 -16.757812 7.96875 -14.414062 7.96875 -11.5 C 7.96875 -6.195312 9.671875 -3.546875 13.078125 -3.546875 C 14.523438 -3.546875 15.707031 -3.976562 16.625 -4.84375 C 17.539062 -5.707031 18 -6.695312 18 -7.8125 Z M 18 -7.8125 "/></g></g></g><g fill="#3a5340" fill-opacity="1"><g transform="translate(248.050138, 198.60925)"><g><path d="M 4.71875 -5.5 L 4.71875 -20.609375 L 0.484375 -20.609375 L 0.484375 -24.734375 L 4.71875 -24.734375 L 4.71875 -26.609375 C 4.71875 -29.816406 5.457031 -32.125 6.9375 -33.53125 C 8.3125 -34.875 10.328125 -35.546875 12.984375 -35.546875 C 15.640625 -35.546875 18 -34.972656 20.0625 -33.828125 L 18.640625 -29.890625 C 17.066406 -30.710938 15.585938 -31.125 14.203125 -31.125 C 12.828125 -31.125 11.878906 -30.785156 11.359375 -30.109375 C 10.835938 -29.441406 10.578125 -28.421875 10.578125 -27.046875 L 10.578125 -24.734375 L 17.84375 -24.734375 L 17.84375 -20.609375 L 10.578125 -20.609375 L 10.578125 -4.125 L 14.703125 -3.9375 L 14.703125 0 L 1.671875 0 L 1.671875 -3.734375 L 3.296875 -3.890625 C 3.785156 -3.953125 4.144531 -4.085938 4.375 -4.296875 C 4.601562 -4.515625 4.71875 -4.914062 4.71875 -5.5 Z M 4.71875 -5.5 "/></g></g></g><g fill="#3a5340" fill-opacity="1"><g transform="translate(269.388385, 198.60925)"><g><path d="M 4.71875 -5.5 L 4.71875 -20.609375 L 0.484375 -20.609375 L 0.484375 -24.734375 L 4.71875 -24.734375 L 4.71875 -26.609375 C 4.71875 -29.816406 5.457031 -32.125 6.9375 -33.53125 C 8.3125 -34.875 10.328125 -35.546875 12.984375 -35.546875 C 15.640625 -35.546875 18 -34.972656 20.0625 -33.828125 L 18.640625 -29.890625 C 17.066406 -30.710938 15.585938 -31.125 14.203125 -31.125 C 12.828125 -31.125 11.878906 -30.785156 11.359375 -30.109375 C 10.835938 -29.441406 10.578125 -28.421875 10.578125 -27.046875 L 10.578125 -24.734375 L 17.84375 -24.734375 L 17.84375 -20.609375 L 10.578125 -20.609375 L 10.578125 -4.125 L 14.703125 -3.9375 L 14.703125 0 L 1.671875 0 L 1.671875 -3.734375 L 3.296875 -3.890625 C 3.785156 -3.953125 4.144531 -4.085938 4.375 -4.296875 C 4.601562 -4.515625 4.71875 -4.914062 4.71875 -5.5 Z M 4.71875 -5.5 "/></g></g></g><g fill="#3a5340" fill-opacity="1"><g transform="translate(290.726632, 198.60925)"><g><path d="M 13.96875 -25.46875 C 16.425781 -25.46875 18.375 -24.867188 19.8125 -23.671875 C 21.257812 -22.472656 21.984375 -20.796875 21.984375 -18.640625 C 21.984375 -17.191406 21.671875 -15.914062 21.046875 -14.8125 C 20.421875 -13.71875 19.648438 -12.859375 18.734375 -12.234375 C 17.816406 -11.617188 16.703125 -11.113281 15.390625 -10.71875 C 13.191406 -10.0625 10.71875 -9.734375 7.96875 -9.734375 C 8.0625 -7.992188 8.597656 -6.59375 9.578125 -5.53125 C 10.566406 -4.46875 12.078125 -3.9375 14.109375 -3.9375 C 16.140625 -3.9375 18.171875 -4.65625 20.203125 -6.09375 L 22.078125 -2.109375 C 21.421875 -1.523438 20.3125 -0.921875 18.75 -0.296875 C 17.195312 0.328125 15.421875 0.640625 13.421875 0.640625 C 9.421875 0.640625 6.484375 -0.460938 4.609375 -2.671875 C 2.742188 -4.890625 1.8125 -7.929688 1.8125 -11.796875 C 1.8125 -15.671875 2.878906 -18.914062 5.015625 -21.53125 C 7.148438 -24.15625 10.132812 -25.46875 13.96875 -25.46875 Z M 11.71875 -14.234375 C 12.914062 -14.453125 14.023438 -14.925781 15.046875 -15.65625 C 16.066406 -16.394531 16.578125 -17.273438 16.578125 -18.296875 C 16.578125 -20.296875 15.59375 -21.296875 13.625 -21.296875 C 11.78125 -21.296875 10.367188 -20.566406 9.390625 -19.109375 C 8.410156 -17.648438 7.867188 -15.898438 7.765625 -13.859375 C 9.210938 -13.898438 10.53125 -14.023438 11.71875 -14.234375 Z M 10.8125 -38.65625 L 16.515625 -29.203125 L 14.609375 -27.578125 L 8.3125 -33.6875 C 7.488281 -34.4375 7.078125 -35.140625 7.078125 -35.796875 C 7.078125 -36.453125 7.550781 -37.039062 8.5 -37.5625 Z M 10.8125 -38.65625 "/></g></g></g></svg>